<?xml version="1.0" encoding="UTF-8"?>
<svg id="uuid-d1623fe5-9ab9-47a7-8aa2-10ce63595fb3" data-name="Camada 2" xmlns="http://www.w3.org/2000/svg" viewBox="0 0 242.86 124.3">
  <defs>
    <style>
      .uuid-e6fe3735-1380-4981-b29c-376e2dfad412 {
        fill: #0f0303;
        stroke: #000;
        stroke-miterlimit: 10;
      }
    </style>
  </defs>
  <g id="uuid-7fa54b8e-4a2c-4761-a5e5-a51763c92712" data-name="Camada 1">
    <g>
      <path class="uuid-e6fe3735-1380-4981-b29c-376e2dfad412" d="M110.55,65.82c2.21-.92,4.05-.36,6.44,0,.27.04,4.26.03,12.24,0,3.74-.01,5.69-.03,7.73,1.29.73.47,2.37,1.54,2.58,3.22.29,2.38-2.47,4.64-3.86,5.8-.16.13-.04.03-2.58,1.93-2.54,1.91-2.47,1.87-2.58,1.93-1.33.77-3.03.94-6.44,1.29-1.1.11-2.25.18-3.63.12,0,0-.78-.04-1.52-.12-3.63-.42-7.42-2.41-7.73-2.58-3.06-1.63-4.58-2.45-5.15-3.86-1.19-2.95,1.07-6.13,1.29-6.44,1.26-1.73,2.88-2.43,3.22-2.58Z"/>
      <path class="uuid-e6fe3735-1380-4981-b29c-376e2dfad412" d="M120.21,81.92c-.38.47-.22.94,0,3.22.33,3.5.12,4.18,0,4.51-.6,1.57-2.12,2.34-2.58,2.58-4.63,2.36-10.99-2.3-11.59-1.29-.41.69,2.43,3.1,2.58,3.22.64.54,1.67,1.38,3.22,1.93.92.33,3.66,1.13,6.44,0,2.47-1.01,2.8-2.66,4.51-2.58,1.36.07,1.51,1.13,3.22,1.93,3.31,1.56,7.15-.36,7.73-.64,2.94-1.46,4.8-4.15,4.51-4.51-.23-.28-1.61,1.06-4.51,1.93-1.55.47-4.45,1.34-7.09,0-.48-.24-2-1.02-2.58-2.58-.21-.57-.19-.97,0-3.22.3-3.57.39-4.05,0-4.51-.84-1-3.09-.97-3.86,0Z"/>
      <path d="M103.46,49.36c-.62-.58-1.82-1.47-5.15-1.93-2.09-.3-6.88-.91-12.24,1.29-9.26,3.78-12.78,12.88-13.53,14.81-2.27,5.87-1.8,10.74-1.28,16.1.3,3.15.81,4.87,1.93,6.44,2.77,3.89,7.55,4.43,8.37,4.51,5.09.49,8.69-2.43,9.66-3.22.88-.71,4.39-3.73,5.16-8.37.41-2.54-.31-3.68.64-6.44.43-1.27.6-1.08,2.58-4.51,2.06-3.6,1.99-4,3.86-7.09,1.55-2.55,1.66-2.38,1.93-3.22.85-2.65.34-6.25-1.93-8.37ZM96.26,62.89c-2.34,0-4.25-1.9-4.25-4.25s1.91-4.25,4.25-4.25,4.25,1.9,4.25,4.25-1.9,4.25-4.25,4.25Z"/>
      <path d="M173.02,72.26c-.27-2.61-.87-7.7-4.51-12.88-4.12-5.88-9.57-8.19-11.59-9.02-2.94-1.2-8.24-3.37-13.53-1.29-1.1.44-4.27,1.68-5.15,4.51-.52,1.67-.02,3.16.65,5.15.81,2.43,1.55,3.04,3.86,7.09,1.76,3.07,2.63,4.6,3.22,6.44.93,2.9.45,3.61,1.29,6.44.26.88,1.14,3.76,3.22,6.44.79,1.02,5.07,6.54,11.59,6.44.89-.01,4.39-.07,7.09-2.57,1.98-1.84,2.5-4.05,3.22-7.09,1.09-4.59.78-8.35.64-9.66ZM148.57,63.89c-2.35,0-4.25-1.9-4.25-4.25,0-.87.25-1.67.7-2.34.02-.03.03-.05.05-.08.64-1.1,1.83-1.84,3.19-1.84.08,0,.17,0,.25.01h.06c2.35,0,4.25,1.9,4.25,4.25s-1.9,4.25-4.25,4.25Z"/>
      <path d="M242.62,101.35c-.13-1.97-1.02-5-.68-11.06.05-.89.23-3.55,0-7.08-.15-2.3-.23-3.47-.64-4.51-.96-2.4-3.33-5.08-6.44-5.8-3.12-.72-5.17.93-7.09-.64-.71-.59-.62-.97-1.29-1.93-1.92-2.77-6.18-4.57-9.66-3.87-3.11.63-3.49,2.83-5.8,2.58-1.74-.19-2.54-1.56-3.46-2.45.68-1.68.97-3.38.97-5.09,0-3.19-1.04-6.4-2.57-9.49,3.94-1.31,7.19-6.13,7.64-6.8,5.27-7.84,5.32-19.47.65-28.34-6.73-12.8-23.37-20.11-36.72-15.46-3.99,1.39-12.13,5.4-13.36,10.93-35.53-15.99-70.38-4.82-80.41-.93-1.54.6-3.69,1.44-6.25,2.58-5.11-7.01-14.87-7.94-17.91-8.23-3.71-.35-11.42-.97-19.33,3.87-2.01,1.23-9.13,5.93-12.23,15.46-2.81,8.62-.64,16.02.64,19.32,1.98,5.1,3.64,9.37,6.96,10.27-3.12,7.6-6.57,19.31-2.41,27.1-4.6-.97-8.1-1.65-12.21-1.15-1.77.22-9.75,1.18-15.46,7.73-6.21,7.13-7.12,17.9-3.22,25.12.31.58,4.13,7.47,8.37,7.09,2.18-.2,3.22-2.19,5.8-1.94,1.76.18,2.15,1.19,4.51,2.58.61.36,6.52,3.85,9.66,1.93,2.5-1.53,1.9-5.67,3.22-5.79,1.29-.13,1.49,3.84,4.51,5.79,3.09,2,8.31,1.33,10.3-1.29,1.65-2.16.25-4.55,1.94-5.79,1.68-1.24,3.62.72,6.44,0,2.24-.58,4.17-2.63,5.15-4.88,3.23,1.46,6.51,1.33,11.06,1.15.89-.04,1.88-.08,2.97-.11,4.89-.16,5.45-.03,5.86.07,1.87.46,3.8.93,21.13.57,18.59-.38,26.92-1.14,32.43-1.64,5.09-.46,7.65-.7,14.14-.3,5.33.32,10.14.89,14.39,1.39,4.34.51,8.22.96,11.55.96,5.39,0,9.35-1.19,11.47-5.3.24-.48.43-.94.57-1.39.52.37,1.11.73,1.76,1.06,5.01,2.54,9.51,1.01,16,0,5.23-.82,15.12-2.36,26-1,4.05.51,8.73,1.48,10.56-.95.96-1.27.8-3.04.49-4.34ZM187.84,81.92c0-.63.13-1.23.37-1.77.68-1.61,2.28-2.74,4.14-2.74.73,0,1.42.18,2.03.49,1.47.74,2.47,2.26,2.47,4.02,0,2.49-2.01,4.51-4.5,4.51s-4.51-2.02-4.51-4.51ZM231.31,80.63c2.32,0,4.19,1.88,4.19,4.19s-1.87,4.19-4.19,4.19-4.18-1.88-4.18-4.19,1.87-4.19,4.18-4.19ZM219.08,74.19c2.31,0,4.18,1.88,4.18,4.19s-1.87,4.18-4.18,4.18-4.19-1.87-4.19-4.18,1.87-4.19,4.19-4.19ZM220.44,87.65c5.78,2.19,9.21,6.14,9.22,7.79,0,.12-.01,1.2,0,2.84,0,1.37,0,1.36,0,1.42-.51,1.88-9.16.15-17.72.7-8.79.57-16.03,3.46-17.01,1.42-.1-.2-.04-.25,0-2.12.05-2.54-.02-3.77,0-4.26.13-3.49,6.39-6.74,7.09-7.09,8.49-4.31,17.21-1.17,18.42-.7ZM205.55,72.26c2.31,0,4.19,1.87,4.19,4.19s-1.88,4.18-4.19,4.18-4.19-1.87-4.19-4.18,1.88-4.19,4.19-4.19ZM184.94,69.62c-1.56.35-3.51.78-5.67,2.8-6.95,6.45-5.14,18-4.27,23.55.44,2.82,1,4.85,1.47,6.33-2.62.08-7.15-.47-10.97-.92-4.39-.51-9.36-1.1-15-1.44-2.55-.15-4.59-.22-6.4-.22-3.39,0-5.95.23-9.41.54-5.35.49-13.45,1.23-31.66,1.6-15.89.33-17.52-.06-18.31-.26-1.68-.41-3.02-.56-8.8-.38-1.12.04-2.14.08-3.06.12-4.9.19-5.69.14-6.55-.45-1.58-1.08-2.14-3-3.01-6.31-1.1-4.22-2.47-9.46-7.69-13.48-3.99-3.07-7.72-3.39-10.19-3.61-1.74-.15-1.95-.22-2.15-.42-2.39-2.41-.57-13.35,5.44-24.4,10.91-20.05,32.08-28.3,39.03-31,6.56-2.55,40.96-14.43,74.18,1.75.17.09,17.62,8.81,30.74,27.81h0c3.92,5.68,5.49,9.51,4.65,11.38-1.06,2.37-6.24,4.72-8.21,5.6-2.02.92-3.16,1.18-4.16,1.41Z"/>
    </g>
  </g>
</svg>