<?xml version="1.0" encoding="UTF-8"?>
<svg id="uuid-d05955d1-304d-4924-87d2-cba0f58321af" data-name="Camada 2" xmlns="http://www.w3.org/2000/svg" viewBox="0 0 390.52 301.64">
  <defs>
    <style>
      .uuid-95c6d828-4494-43dd-b25b-f1933cbb0e22 {
        fill: none;
        stroke-width: 11px;
      }

      .uuid-95c6d828-4494-43dd-b25b-f1933cbb0e22, .uuid-eaff2670-24a8-4fd5-a365-91190bedf1c2, .uuid-b4850cef-d2ff-419f-af34-81ebe42fd31a {
        stroke: #fff;
        stroke-miterlimit: 10;
      }

      .uuid-eaff2670-24a8-4fd5-a365-91190bedf1c2 {
        stroke-width: 4px;
      }

      .uuid-eaff2670-24a8-4fd5-a365-91190bedf1c2, .uuid-3e2e68fa-d821-4880-8afb-21d099865dce, .uuid-b4850cef-d2ff-419f-af34-81ebe42fd31a {
        fill: #fff;
      }
    </style>
  </defs>
  <g id="uuid-e5fb6f91-ea5f-41da-87a4-2f2a084f5db7" data-name="Camada 1">
    <g>
      <path class="uuid-3e2e68fa-d821-4880-8afb-21d099865dce" d="M69.39,171.6c0,10.06-3.21,18.49-9.63,25.3-6.55,6.9-14.83,10.35-24.86,10.35s-18.24-3.48-24.81-10.45c-6.45-6.8-9.67-15.2-9.67-25.2s3.22-18.46,9.67-25.3c6.58-7,14.85-10.5,24.81-10.5s18.15,3.5,24.76,10.5c6.48,6.9,9.72,15.33,9.72,25.3ZM51.06,171.5c0-4.84-1.47-8.95-4.4-12.33-3.06-3.55-6.98-5.32-11.75-5.32s-8.4,1.84-11.56,5.51c-3.06,3.55-4.6,7.63-4.6,12.24,0,4.93,1.43,9.04,4.3,12.33,3.03,3.45,6.98,5.18,11.85,5.18,4.55,0,8.42-1.82,11.61-5.47,3.03-3.48,4.55-7.53,4.55-12.14Z"/>
      <path class="uuid-3e2e68fa-d821-4880-8afb-21d099865dce" d="M390.52,204.25c0,.58-.4.98-1.21,1.21-.97.26-3.97.39-9,.39-4.61,0-7.58-.13-8.9-.39-1.1-.23-1.79-.95-2.08-2.18-1.1-4.64-1.95-7.13-2.56-7.45-.52-.22-4.84-.34-12.96-.34-5.48,0-8.4.14-8.75.43-.55.52-1.16,2.24-1.84,5.18-.61,2.68-1.35,4.13-2.22,4.35-1.1.26-4.77.39-11.03.39-4.93,0-7.4-.47-7.4-1.4,0-.84,3.64-11.14,10.93-30.91,7.9-21.38,12.19-33.13,12.87-35.26.39-1.23.84-1.84,1.35-1.84.87,0,2.22.08,4.04.24,1.82.16,3.18.24,4.09.24s2.15-.06,3.84-.17,2.96-.17,3.8-.17c.61,0,1.18.53,1.69,1.6,1.58,3.39,6.19,14.99,13.83,34.83,7.67,19.96,11.51,30.38,11.51,31.25ZM356.22,160.18c-.68,1.42-1.82,4.5-3.43,9.24-1.74,5.03-2.61,7.98-2.61,8.85,0,.58.97.9,2.9.97,1,.07,2.64.1,4.93.1,2.13,0,3.3-.26,3.53-.77.06-.16.1-.39.1-.68,0-1.06-.74-4-2.23-8.8-1.45-4.64-2.51-7.61-3.19-8.9Z"/>
      <path class="uuid-b4850cef-d2ff-419f-af34-81ebe42fd31a" d="M243.89,74.26c-.27-2.61-.87-7.7-4.51-12.88-4.12-5.88-9.57-8.19-11.59-9.02-2.94-1.2-8.24-3.37-13.53-1.29-1.1.44-4.27,1.68-5.15,4.51-.52,1.67-.02,3.16.65,5.15.81,2.43,1.55,3.04,3.86,7.09,1.76,3.07,2.63,4.6,3.22,6.44.93,2.9.45,3.61,1.29,6.44.26.88,1.14,3.76,3.22,6.44.79,1.02,5.07,6.54,11.59,6.44.89,0,4.39-.07,7.09-2.57,1.98-1.84,2.5-4.05,3.22-7.09,1.09-4.59.78-8.35.64-9.66ZM219.3,67.81c-3.02.12-5.56-2.24-5.68-5.26-.11-3.02,2.24-5.56,5.27-5.68,3.02-.11,5.56,2.24,5.68,5.26.11,3.03-2.24,5.57-5.27,5.68Z"/>
      <path class="uuid-95c6d828-4494-43dd-b25b-f1933cbb0e22" d="M263.25,75.22c3.16-1.43,9.05-4.11,10.95-8.37,2.02-4.53-.5-10.01-5.15-16.75-14.17-20.53-32.85-29.63-32.85-29.63-36.37-17.71-73.3-3.99-78.58-1.93-8.59,3.34-30.23,12.11-41.87,33.49-5,9.18-10.46,24.94-4.51,30.92,3.46,3.48,7.61.46,12.88,4.51,7.36,5.66,4.16,15.32,10.95,19.97,2.92,2,5.52,1.52,12.88,1.29,13.62-.44-1.31,1.23,27.05.64,35.56-.73,32.71-2.8,47.02-1.93,17.75,1.08,29.75,4.74,32.2,0,1.05-2.02-.83-3.28-1.93-10.31-.74-4.73-2.22-14.22,2.58-18.68,2.08-1.93,3.06-.81,8.37-3.22Z"/>
      <path class="uuid-eaff2670-24a8-4fd5-a365-91190bedf1c2" d="M109.63,51.71c-3.41-.82-5.08-5.13-7.09-10.31-1.28-3.3-3.45-10.7-.64-19.32,3.1-9.52,10.22-14.22,12.24-15.46,7.91-4.83,15.61-4.22,19.32-3.86,3.07.29,12.94,1.23,18.03,8.37.97,1.36,2.47,3.52,1.93,5.8-.94,4-7.46,5.34-10.95,6.44-19.58,6.19-24.17,30.43-32.85,28.34Z"/>
      <path class="uuid-eaff2670-24a8-4fd5-a365-91190bedf1c2" d="M235.87,15.65c.11-6.2,9.23-10.74,13.53-12.24,13.35-4.65,29.98,2.66,36.71,15.46,4.67,8.88,4.62,20.5-.64,28.34-.55.82-5.24,7.8-10.31,7.09-4.1-.58-5.87-5.82-8.37-10.31-10.56-18.94-31.08-18.99-30.92-28.34Z"/>
      <path class="uuid-eaff2670-24a8-4fd5-a365-91190bedf1c2" d="M105.77,83.92c-4.94-1.04-8.57-1.81-12.88-1.29-1.77.21-9.75,1.18-15.46,7.73-6.21,7.13-7.12,17.9-3.22,25.12.31.58,4.13,7.46,8.37,7.09,2.18-.19,3.21-2.19,5.8-1.93,1.76.17,2.15,1.18,4.51,2.58.61.36,6.52,3.85,9.66,1.93,2.5-1.53,1.9-5.67,3.22-5.8,1.29-.13,1.49,3.85,4.51,5.8,3.09,2,8.31,1.33,10.31-1.29,1.65-2.16.24-4.55,1.93-5.8,1.68-1.23,3.62.72,6.44,0,2.98-.76,5.38-4.1,5.8-7.09.21-1.52,0-3.57-7.73-12.88-5.03-6.06-7.61-9.13-10.95-10.95-3.12-1.7-5.78-2.26-10.31-3.22Z"/>
      <path class="uuid-3e2e68fa-d821-4880-8afb-21d099865dce" d="M321.66,96.36c.06-1.04.27-4.14,0-8.26-.17-2.68-.27-4.05-.75-5.26-1.12-2.8-3.88-5.92-7.51-6.76-3.64-.84-6.03,1.08-8.27-.75-.83-.69-.72-1.13-1.5-2.25-2.24-3.23-7.21-5.33-11.26-4.51-3.63.73-4.07,3.3-6.76,3.01-3.09-.34-3.65-3.86-6.01-3.75-2.4.09-2.53,3.8-6.76,7.51-.61.54-1.31,1.07-8.26,4.5-8.55,4.23-8.38,3.86-9.01,4.51-5.06,5.27-2.47,15.64-1.5,19.52,1.2,4.79,1.8,7.2,3.75,9.01,4.65,4.33,10.54.73,27.79,0,14.17-.59,21.78,0,21.78,0,8.28.65,12.2,1.71,14.27-.75,2.1-2.48-.61-5.1,0-15.78ZM295,77.58c2.69,0,4.87,2.19,4.87,4.89s-2.18,4.87-4.87,4.87-4.89-2.18-4.89-4.87,2.18-4.89,4.89-4.89ZM279.22,75.33c2.69,0,4.89,2.18,4.89,4.89s-2.19,4.87-4.89,4.87-4.89-2.18-4.89-4.87,2.19-4.89,4.89-4.89ZM263.83,91.85c-2.9,0-5.26-2.36-5.26-5.26s2.36-5.26,5.26-5.26,5.25,2.36,5.25,5.26-2.34,5.26-5.25,5.26ZM307.34,107.33c-.09.91-12.34.28-20.66.82-10.25.66-18.69,4.03-19.84,1.66,0,0-.02-.04-.04-.09-.33-.84-.33-1.55-.33-2.4,0-2.01-.01-1.8,0-2,0,0,.08-1.57.37-2.95.33-1.61,2.93-5.56,8.27-8.27,9.9-5.03,20.07-1.36,21.48-.82,6.74,2.55,10.74,7.16,10.75,9.08,0,.14-.01,1.4,0,3.31,0,.22,0,.63,0,1.18,0,.31,0,.46,0,.48ZM309.26,94.86c-2.69,0-4.87-2.19-4.87-4.89s2.18-4.89,4.87-4.89,4.89,2.19,4.89,4.89-2.18,4.89-4.89,4.89Z"/>
      <path class="uuid-b4850cef-d2ff-419f-af34-81ebe42fd31a" d="M180.41,67.82c2.21-.92,4.05-.36,6.44,0,.27.04,4.26.03,12.24,0,3.74-.01,5.69-.03,7.73,1.29.73.47,2.37,1.54,2.58,3.22.29,2.38-2.47,4.64-3.86,5.8-.16.13-.04.03-2.58,1.93-2.54,1.91-2.47,1.87-2.58,1.93-1.33.77-3.03.94-6.44,1.29-1.1.11-2.25.18-3.63.12,0,0-.78-.04-1.52-.12-3.63-.42-7.42-2.41-7.73-2.58-3.06-1.63-4.58-2.45-5.15-3.86-1.19-2.95,1.07-6.13,1.29-6.44,1.26-1.73,2.88-2.43,3.22-2.58Z"/>
      <path class="uuid-b4850cef-d2ff-419f-af34-81ebe42fd31a" d="M190.08,83.92c-.38.47-.22.94,0,3.22.33,3.5.12,4.18,0,4.51-.6,1.57-2.12,2.34-2.58,2.58-4.63,2.36-10.99-2.3-11.59-1.29-.41.69,2.43,3.1,2.58,3.22.64.54,1.67,1.38,3.22,1.93.92.33,3.66,1.13,6.44,0,2.47-1.01,2.8-2.66,4.51-2.58,1.36.07,1.51,1.13,3.22,1.93,3.31,1.56,7.15-.36,7.73-.64,2.94-1.46,4.8-4.15,4.51-4.51-.23-.28-1.61,1.06-4.51,1.93-1.55.47-4.45,1.34-7.09,0-.48-.24-2-1.02-2.58-2.58-.21-.57-.19-.97,0-3.22.3-3.57.39-4.05,0-4.51-.84-1-3.09-.97-3.86,0Z"/>
      <path class="uuid-b4850cef-d2ff-419f-af34-81ebe42fd31a" d="M175.33,52.09c-.62-.58-1.82-1.47-5.15-1.93-2.09-.3-6.88-.91-12.24,1.29-9.26,3.78-12.78,12.88-13.53,14.81-2.27,5.87-1.8,10.74-1.28,16.1.3,3.15.81,4.87,1.93,6.44,2.77,3.89,7.55,4.43,8.37,4.51,5.09.49,8.69-2.43,9.66-3.22.88-.71,4.39-3.73,5.16-8.37.41-2.54-.31-3.68.64-6.44.43-1.27.6-1.08,2.58-4.51,2.06-3.6,1.99-4,3.86-7.09,1.55-2.55,1.66-2.38,1.93-3.22.85-2.65.34-6.25-1.93-8.37ZM167.3,69.54c-1.07.04-2.07-.22-2.93-.73h-.01c-1.57-.91-2.66-2.58-2.74-4.53-.11-3.02,2.24-5.56,5.27-5.68.27-.01.54,0,.8.04,2.66.28,4.77,2.48,4.88,5.22.11,3.03-2.24,5.57-5.27,5.68Z"/>
      <path class="uuid-3e2e68fa-d821-4880-8afb-21d099865dce" d="M126.56,153.36c0,.36-.32.53-.97.53-2.42,0-6.09-.21-11-.63-4.92-.42-8.6-.63-11.05-.63-3.1,0-4.9.11-5.42.34-1.19.55-1.79,2.1-1.79,4.64,0,3.06.77,4.81,2.32,5.22.64.16,1.63.24,2.95.24,2.22,0,5.55-.12,9.99-.36,4.43-.24,7.76-.36,9.99-.36,1.06,0,1.6,2.84,1.6,8.51,0,4.93-.18,7.8-.53,8.61-.23.58-.66.87-1.31.87.42,0-.6-.11-3.05-.34-3.45-.32-8.67-.48-15.67-.48-2.26,0-3.53.02-3.82.05-1.64.26-2.47.95-2.47,2.08,0,4.58.19,9.85.58,15.82.32,5.39.48,7.79.48,7.21,0,.84-1.02,1.32-3.05,1.45.55-.03-.89-.05-4.3-.05-6.03,0-9.92-.21-11.66-.63-.94-.23-1.4-.73-1.4-1.5,0-3.58.12-8.96.36-16.13.24-7.17.36-12.55.36-16.13,0-4.26-.19-9.61-.58-16.06-.58-9.96-.89-15.32-.92-16.06l-.05-.58c-.03-.81.45-1.21,1.45-1.21,2.39,0,5.99.05,10.81.14,4.82.1,8.44.15,10.86.15,2.58,0,6.46-.19,11.63-.58,5.17-.39,9.05-.58,11.63-.58,1.61,0,2.51.66,2.71,1.98,0,1.39.06,3.47.19,6.24.06.71.27,2.08.63,4.11.32,1.77.48,3.14.48,4.11Z"/>
      <path class="uuid-3e2e68fa-d821-4880-8afb-21d099865dce" d="M151.91,169.71c0,3.81.1,9.53.29,17.17s.29,13.37.29,17.17c0,.65-.14,1.05-.43,1.21-.07.03-.48.1-1.26.19-2.1.26-4.9.39-8.42.39-4.71,0-7.71-.13-9-.39-.94-.19-1.4-.69-1.4-1.5,0,.52.14-2.32.44-8.51.58-13.06.87-21.64.87-25.73,0-3.45-.11-8.63-.34-15.53s-.34-12.08-.34-15.53c0-.71.37-1.06,1.11-1.06,1,0,2.51.05,4.52.15,2.01.1,3.52.15,4.52.15s2.47-.05,4.43-.15c1.95-.1,3.43-.15,4.43-.15.93,0,1.4.36,1.4,1.06,0,3.45-.19,8.63-.56,15.53-.37,6.9-.56,12.08-.56,15.53Z"/>
      <path class="uuid-3e2e68fa-d821-4880-8afb-21d099865dce" d="M218.27,194.53c0,.52-.34,1.19-1.02,2.03-5.93,7.06-13.82,10.59-23.65,10.59s-18.22-3.43-24.48-10.3c-6.09-6.64-9.14-15.03-9.14-25.15s2.98-18.12,8.95-24.96c6.22-7.16,14.14-10.74,23.75-10.74,10.45,0,18.64,3.21,24.57,9.63.64.71.97,1.34.97,1.89,0,.61-1.12,2.89-3.36,6.82-2.24,3.93-3.65,6.14-4.23,6.63-.26.26-.58.39-.97.39-.16,0-.97-.64-2.42-1.93-1.74-1.55-3.45-2.76-5.13-3.63-2.55-1.29-5.19-1.93-7.93-1.93-4.74,0-8.53,1.77-11.37,5.32-2.61,3.29-3.92,7.35-3.92,12.19s1.31,9.01,3.92,12.33c2.84,3.61,6.63,5.42,11.37,5.42,2.8,0,5.47-.61,7.98-1.84,1.64-.81,3.32-1.93,5.03-3.39,1.42-1.22,2.21-1.84,2.37-1.84.32,0,.64.18.97.53.52.58,1.92,2.6,4.21,6.05,2.35,3.58,3.53,5.55,3.53,5.9Z"/>
      <path class="uuid-3e2e68fa-d821-4880-8afb-21d099865dce" d="M243.13,169.71c0,3.81.1,9.53.29,17.17s.29,13.37.29,17.17c0,.65-.15,1.05-.43,1.21-.07.03-.48.1-1.26.19-2.1.26-4.9.39-8.42.39-4.71,0-7.71-.13-9-.39-.94-.19-1.4-.69-1.4-1.5,0,.52.14-2.32.44-8.51.58-13.06.87-21.64.87-25.73,0-3.45-.11-8.63-.34-15.53-.22-6.9-.34-12.08-.34-15.53,0-.71.37-1.06,1.11-1.06,1,0,2.51.05,4.52.15s3.52.15,4.52.15,2.47-.05,4.43-.15c1.95-.1,3.43-.15,4.43-.15.93,0,1.4.36,1.4,1.06,0,3.45-.19,8.63-.56,15.53s-.56,12.08-.56,15.53Z"/>
      <path class="uuid-3e2e68fa-d821-4880-8afb-21d099865dce" d="M317.72,139.09c0,3.68-.15,9.2-.46,16.57-.31,7.37-.46,12.91-.46,16.62v31.88c0,.87-.47,1.31-1.4,1.31-.77,0-1.94.03-3.51.1-1.56.06-2.73.1-3.51.1-.84,0-2.1-.06-3.77-.19s-2.93-.19-3.77-.19c-.58,0-1.27-.53-2.08-1.6-2.32-3.13-7.55-10.06-15.67-20.8-2.23-3-5.61-7.42-10.16-13.25-.13-.19-.37-.39-.73-.58-.26.23-.39.58-.39,1.06,0,3.74.11,9.35.31,16.83.21,7.48.31,13.09.31,16.83,0,1.13-.43,1.69-1.3,1.69h-16.74c-.94,0-1.4-.5-1.4-1.5,0-3.48.17-8.74.51-15.77.34-7.03.51-12.3.51-15.82,0-3.71-.15-9.25-.46-16.64-.31-7.38-.46-12.91-.46-16.59,0-.71.63-1.06,1.89-1.06,1.87,0,4.18-.13,6.92-.39.64-.06,1.92-.27,3.82-.63,1.61-.29,2.88-.44,3.82-.44.39,0,.98.55,1.79,1.64l18.04,24.72c1.61,2.22,4.05,5.48,7.3,9.77.8,1,1.5,1.5,2.08,1.5.42,0,.63-1.26.63-3.77,0-3.39-.19-8.48-.56-15.28-.37-6.8-.56-11.92-.56-15.33,0-1.19.34-1.79,1.02-1.79,1.94,0,4.85-.08,8.75-.24,3.9-.16,6.82-.24,8.75-.24.61,0,.92.5.92,1.5Z"/>
      <g>
        <path class="uuid-3e2e68fa-d821-4880-8afb-21d099865dce" d="M75.04,298.31c0,1.04-.49,1.56-1.46,1.56h-17.82c-.97,0-1.46-.59-1.46-1.76,0-3.39.13-8.47.38-15.25.25-6.78.38-11.86.38-15.25,0-.97-.15-1.49-.45-1.56-.37.2-2.62,5.39-6.74,15.55-2.42,5.97-4.83,11.93-7.25,17.87-.34.77-.76,1.22-1.26,1.36-.17.03-.84.05-2.01.05-1.75,0-2.79-.34-3.12-1.01-1.81-3.69-4.19-9.06-7.15-16.11-3.15-7.45-5.52-12.83-7.1-16.16-.07-.17-.22-.35-.45-.55-.23.3-.35.79-.35,1.46,0,3.29.08,8.22.25,14.8.17,6.58.25,11.51.25,14.8,0,1.18-.47,1.76-1.41,1.76H1.46c-.67,0-1.08-.11-1.23-.33-.15-.22-.23-.6-.23-1.13,0-3.66.18-9.15.53-16.48.35-7.33.53-12.82.53-16.48,0-3.89-.17-11.19-.5-21.89-.03-2.78-.18-6.93-.45-12.43l-.05-.86c-.03-.67.67-1.01,2.11-1.01,1.85,0,4.61-.06,8.3-.18,3.69-.12,6.46-.18,8.31-.18.37,0,.89.7,1.56,2.11l14.7,32.26c1.04,2.18,1.91,3.27,2.62,3.27.37,0,1.16-1.26,2.37-3.78,3.39-7.05,8.41-17.67,15.05-31.86.57-1.31,1.19-1.96,1.86-1.96.97,0,2.44.05,4.4.15,1.96.1,3.45.15,4.45.15.84,0,2.12-.08,3.85-.25,1.73-.17,3.01-.25,3.85-.25,1.01,0,1.51.4,1.51,1.21,0,3.96-.14,9.87-.43,17.74-.29,7.87-.43,13.78-.43,17.74,0,3.66.15,9.14.45,16.46.3,7.32.45,12.78.45,16.41Z"/>
        <path class="uuid-3e2e68fa-d821-4880-8afb-21d099865dce" d="M150.79,298.62c0,.6-.42,1.02-1.26,1.26-1.01.27-4.13.4-9.36.4-4.8,0-7.89-.13-9.26-.4-1.14-.23-1.86-.99-2.16-2.27-1.14-4.83-2.03-7.41-2.67-7.75-.54-.23-5.03-.35-13.49-.35-5.7,0-8.74.15-9.11.45-.57.54-1.21,2.33-1.91,5.39-.64,2.79-1.41,4.3-2.32,4.53-1.14.27-4.97.4-11.48.4-5.13,0-7.7-.49-7.7-1.46,0-.87,3.79-11.59,11.37-32.16,8.22-22.25,12.68-34.48,13.39-36.69.4-1.28.87-1.91,1.41-1.91.91,0,2.31.08,4.2.25,1.89.17,3.31.25,4.25.25s2.24-.06,4-.18c1.76-.12,3.08-.18,3.95-.18.64,0,1.23.55,1.76,1.66,1.64,3.52,6.44,15.6,14.39,36.24,7.98,20.77,11.98,31.61,11.98,32.51ZM105.8,227.75c-.64.03-.96-.32-.96-1.06,0-.27.03-.69.1-1.26.07-.57.1-1.01.1-1.31,0-.4-.06-1.02-.18-1.86-.12-.84-.18-1.46-.18-1.86,0-.47.35-.84,1.06-1.11,1.64-.64,4.83-2.3,9.56-4.98,2.05-1.48,5.15-3.67,9.31-6.59.2-.17.54-.33,1.01-.5.23.07.52.23.86.5.77.81,2,1.95,3.67,3.42.94.54,2.32,1.39,4.13,2.57.54.37.8.7.8,1.01,0,.27-.23.62-.7,1.06-2.95,2.79-7.38,5.43-13.29,7.93-5.91,2.5-10.85,3.85-14.85,4.05h-.45ZM115.11,252.76c-.7,1.48-1.9,4.68-3.57,9.61-1.81,5.23-2.72,8.3-2.72,9.21,0,.6,1.01.94,3.02,1.01,1.04.07,2.75.1,5.13.1,2.21,0,3.44-.27,3.67-.8.07-.17.1-.4.1-.7,0-1.11-.77-4.16-2.31-9.16-1.51-4.83-2.62-7.92-3.32-9.26Z"/>
        <path class="uuid-3e2e68fa-d821-4880-8afb-21d099865dce" d="M222.16,298.26c.07.91-.4,1.36-1.41,1.36-.64,0-2.48-.37-5.51-1.11s-4.91-1.24-5.61-1.51c-7.01,2.75-13.74,4.13-20.18,4.13-10.37,0-18.87-3.45-25.52-10.37-6.58-6.81-9.86-15.42-9.86-25.82s3.19-19.46,9.56-26.47c6.58-7.25,15.12-10.87,25.62-10.87,5.1,0,9.9.97,14.39,2.92,4.86,2.15,8.69,5.17,11.47,9.06.57.81.86,1.38.86,1.71,0,1.07-1.5,3.48-4.5,7.22-3,3.74-4.94,5.61-5.81,5.61-.2,0-.97-.69-2.31-2.06-1.64-1.64-3.32-2.92-5.03-3.82-2.55-1.38-5.37-2.06-8.46-2.06-5.03,0-9.03,1.88-11.98,5.64-2.75,3.46-4.13,7.77-4.13,12.94,0,5.47,1.43,9.8,4.28,12.99,2.95,3.29,7.13,4.93,12.53,4.93,3.42,0,7.25-.86,11.47-2.57-.1-1.11-.4-3.93-.91-8.46-.44-3.49-.65-6.31-.65-8.46,0-.64.22-1.02.65-1.16.17-.07.44-.1.81-.1.97,0,2.44.09,4.4.28,1.96.18,3.45.28,4.45.28,1.07,0,2.68-.08,4.83-.23,2.15-.15,3.76-.23,4.83-.23.84,0,1.26.55,1.26,1.66,0,1.61-.09,4.04-.28,7.3-.18,3.26-.28,5.69-.28,7.3,0,4.33.32,10.8.96,19.43l.05.55Z"/>
        <path class="uuid-3e2e68fa-d821-4880-8afb-21d099865dce" d="M249.64,262.68c0,3.96.1,9.91.3,17.87.2,7.95.3,13.91.3,17.87,0,.67-.15,1.09-.45,1.26-.07.03-.5.1-1.31.2-2.18.27-5.1.4-8.76.4-4.9,0-8.02-.13-9.36-.4-.97-.2-1.46-.72-1.46-1.56,0,.54.15-2.42.45-8.86.6-13.59.91-22.51.91-26.78,0-3.59-.12-8.98-.35-16.16s-.35-12.57-.35-16.16c0-.74.39-1.11,1.16-1.11,1.04,0,2.61.05,4.71.15,2.1.1,3.67.15,4.71.15s2.57-.05,4.61-.15c2.03-.1,3.56-.15,4.61-.15.97,0,1.46.37,1.46,1.11,0,3.59-.19,8.98-.58,16.16-.39,7.18-.58,12.57-.58,16.16Z"/>
        <path class="uuid-3e2e68fa-d821-4880-8afb-21d099865dce" d="M318.69,288.5c0,.54-.35,1.24-1.06,2.11-6.17,7.35-14.38,11.02-24.61,11.02s-18.96-3.57-25.47-10.72c-6.34-6.91-9.51-15.64-9.51-26.17s3.1-18.86,9.31-25.97c6.47-7.45,14.71-11.17,24.71-11.17,10.87,0,19.39,3.34,25.57,10.02.67.74,1.01,1.39,1.01,1.96,0,.64-1.17,3-3.5,7.1-2.33,4.09-3.8,6.39-4.4,6.9-.27.27-.6.4-1.01.4-.17,0-1.01-.67-2.52-2.01-1.81-1.61-3.59-2.87-5.33-3.78-2.65-1.34-5.4-2.01-8.26-2.01-4.93,0-8.88,1.85-11.83,5.54-2.72,3.42-4.08,7.65-4.08,12.68s1.36,9.38,4.08,12.83c2.95,3.76,6.9,5.64,11.83,5.64,2.92,0,5.69-.64,8.31-1.91,1.71-.84,3.46-2.01,5.23-3.52,1.48-1.27,2.3-1.91,2.47-1.91.34,0,.67.18,1.01.55.54.6,2,2.7,4.38,6.29,2.45,3.73,3.67,5.77,3.67,6.14Z"/>
        <path class="uuid-3e2e68fa-d821-4880-8afb-21d099865dce" d="M390.52,298.62c0,.6-.42,1.02-1.26,1.26-1.01.27-4.13.4-9.36.4-4.8,0-7.89-.13-9.26-.4-1.14-.23-1.86-.99-2.16-2.27-1.14-4.83-2.03-7.41-2.67-7.75-.54-.23-5.03-.35-13.49-.35-5.7,0-8.74.15-9.11.45-.57.54-1.21,2.33-1.91,5.39-.64,2.79-1.41,4.3-2.31,4.53-1.14.27-4.97.4-11.48.4-5.13,0-7.7-.49-7.7-1.46,0-.87,3.79-11.59,11.37-32.16,8.22-22.25,12.68-34.48,13.39-36.69.4-1.28.87-1.91,1.41-1.91.91,0,2.31.08,4.2.25,1.9.17,3.31.25,4.25.25s2.24-.06,4-.18c1.76-.12,3.08-.18,3.95-.18.64,0,1.22.55,1.76,1.66,1.64,3.52,6.44,15.6,14.39,36.24,7.99,20.77,11.98,31.61,11.98,32.51ZM354.83,252.76c-.71,1.48-1.9,4.68-3.57,9.61-1.81,5.23-2.72,8.3-2.72,9.21,0,.6,1.01.94,3.02,1.01,1.04.07,2.75.1,5.13.1,2.22,0,3.44-.27,3.67-.8.07-.17.1-.4.1-.7,0-1.11-.77-4.16-2.32-9.16-1.51-4.83-2.62-7.92-3.32-9.26Z"/>
      </g>
    </g>
  </g>
</svg>